<svg width="800" height="400" viewBox="0 0 800 400" fill="none" xmlns="http://www.w3.org/2000/svg">
<g clip-path="url(#clip0_1_4)">
<rect width="800" height="400" rx="32" fill="url(#paint0_linear_1_4)"/>
<path d="M208.096 157.288C202.507 157.288 197.941 159.293 194.4 163.304C190.859 167.315 189.088 172.243 189.088 178.088C189.088 183.891 191.093 188.819 195.104 192.872C199.115 196.925 204 198.952 209.76 198.952C214.709 198.952 218.827 198.269 222.112 196.904V178.088H225.184V198.312C221.472 200.616 216.267 201.768 209.568 201.768C202.912 201.768 197.28 199.485 192.672 194.92C188.064 190.312 185.76 184.701 185.76 178.088C185.76 171.432 187.851 165.843 192.032 161.32C196.213 156.755 201.568 154.472 208.096 154.472C213.216 154.472 218.4 155.325 223.648 157.032L222.816 159.592C217.696 158.056 212.789 157.288 208.096 157.288ZM262.705 201.768C256.049 201.768 250.332 199.507 245.553 194.984C240.774 190.419 238.385 184.808 238.385 178.152C238.385 171.453 240.476 165.843 244.657 161.32C248.838 156.755 254.193 154.472 260.721 154.472C265.841 154.472 271.025 155.325 276.273 157.032L275.441 159.592C270.321 158.056 265.414 157.288 260.721 157.288C255.132 157.288 250.566 159.293 247.025 163.304C243.484 167.315 241.713 172.221 241.713 178.024C241.713 183.827 243.761 188.776 247.857 192.872C251.996 196.925 256.945 198.952 262.705 198.952C267.74 198.952 272.092 198.184 275.761 196.648L276.721 198.824C275.1 199.763 272.966 200.488 270.321 201C267.718 201.512 265.18 201.768 262.705 201.768ZM288.76 201V155.24H310.009V157.928H291.833V174.76H308.281V177.384H291.833V198.312H310.713V201H288.76ZM365.849 159.272C362.734 157.949 359.641 157.288 356.569 157.288C350.34 157.288 347.225 159.592 347.225 164.2C347.225 166.205 347.929 168.083 349.337 169.832C350.745 171.539 352.452 173.075 354.457 174.44C356.462 175.763 358.468 177.128 360.473 178.536C362.478 179.944 364.185 181.629 365.593 183.592C367.001 185.555 367.705 187.688 367.705 189.992C367.705 193.875 366.404 196.819 363.801 198.824C361.198 200.787 357.593 201.768 352.985 201.768C348.42 201.768 344.516 200.595 341.273 198.248L342.809 195.944C345.881 197.949 349.252 198.952 352.921 198.952C356.59 198.952 359.406 198.227 361.369 196.776C363.332 195.283 364.313 193.149 364.313 190.376C364.313 188.456 363.609 186.643 362.201 184.936C360.793 183.187 359.086 181.629 357.081 180.264C355.076 178.856 353.07 177.427 351.065 175.976C349.06 174.525 347.353 172.797 345.945 170.792C344.537 168.787 343.833 166.632 343.833 164.328C343.833 161.299 344.942 158.909 347.161 157.16C349.422 155.368 352.452 154.472 356.249 154.472C360.089 154.472 363.652 155.24 366.937 156.776L365.849 159.272ZM402.705 201.768C396.049 201.768 390.332 199.507 385.553 194.984C380.774 190.419 378.385 184.808 378.385 178.152C378.385 171.453 380.476 165.843 384.657 161.32C388.838 156.755 394.193 154.472 400.721 154.472C405.841 154.472 411.025 155.325 416.273 157.032L415.441 159.592C410.321 158.056 405.414 157.288 400.721 157.288C395.132 157.288 390.566 159.293 387.025 163.304C383.484 167.315 381.713 172.221 381.713 178.024C381.713 183.827 383.761 188.776 387.857 192.872C391.996 196.925 396.945 198.952 402.705 198.952C407.74 198.952 412.092 198.184 415.761 196.648L416.721 198.824C415.1 199.763 412.966 200.488 410.321 201C407.718 201.512 405.18 201.768 402.705 201.768ZM428.76 201V155.432C432.814 155.133 436.206 154.984 438.937 154.984C443.289 154.984 446.873 156.115 449.689 158.376C452.505 160.595 453.913 163.752 453.913 167.848C453.913 170.621 453.102 173.203 451.481 175.592C449.859 177.981 448.046 179.88 446.041 181.288C447.619 183.464 449.561 186.067 451.865 189.096C454.211 192.083 455.726 193.96 456.409 194.728C459.011 197.501 461.955 199.08 465.241 199.464L465.177 201.512C462.574 201.469 460.462 201.085 458.841 200.36C457.219 199.592 455.662 198.44 454.169 196.904C452.718 195.368 449.07 190.589 443.225 182.568C439.043 182.568 435.246 182.44 431.833 182.184V201H428.76ZM441.369 180.008C443.246 180.008 445.251 178.771 447.385 176.296C449.518 173.821 450.585 170.963 450.585 167.72C450.585 164.435 449.475 161.96 447.257 160.296C445.081 158.589 442.179 157.736 438.553 157.736C436.633 157.736 434.393 157.821 431.833 157.992V179.688C435.246 179.901 438.425 180.008 441.369 180.008ZM473.318 185.128L466.726 201H463.462L482.726 154.92H484.518L503.846 201H500.39L493.798 185.128H473.318ZM483.43 160.04C483.387 160.083 483.302 160.339 483.174 160.808C482.576 162.643 482 164.2 481.446 165.48L474.406 182.504H492.71L485.67 165.544C484.176 162.301 483.43 160.467 483.43 160.04ZM513.323 201V155.496C516.864 155.155 520.299 154.984 523.627 154.984C528.107 154.984 531.691 156.029 534.379 158.12C537.11 160.211 538.475 163.368 538.475 167.592C538.475 171.773 536.619 175.229 532.907 177.96C529.238 180.648 524.843 181.992 519.723 181.992C519.51 181.992 519.275 181.992 519.019 181.992V179.88C519.19 179.88 519.339 179.88 519.467 179.88C523.691 179.88 527.36 178.771 530.475 176.552C533.59 174.333 535.147 171.453 535.147 167.912C535.147 164.328 534.059 161.747 531.883 160.168C529.707 158.547 526.784 157.736 523.115 157.736C521.195 157.736 518.955 157.821 516.395 157.992V201H513.323ZM550.51 201V155.24H571.759V157.928H553.583V174.76H570.031V177.384H553.583V198.312H572.463V201H550.51ZM584.76 201V155.432C588.814 155.133 592.206 154.984 594.937 154.984C599.289 154.984 602.873 156.115 605.689 158.376C608.505 160.595 609.913 163.752 609.913 167.848C609.913 170.621 609.102 173.203 607.481 175.592C605.859 177.981 604.046 179.88 602.041 181.288C603.619 183.464 605.561 186.067 607.865 189.096C610.211 192.083 611.726 193.96 612.409 194.728C615.011 197.501 617.955 199.08 621.241 199.464L621.177 201.512C618.574 201.469 616.462 201.085 614.841 200.36C613.219 199.592 611.662 198.44 610.169 196.904C608.718 195.368 605.07 190.589 599.225 182.568C595.043 182.568 591.246 182.44 587.833 182.184V201H584.76ZM597.369 180.008C599.246 180.008 601.251 178.771 603.385 176.296C605.518 173.821 606.585 170.963 606.585 167.72C606.585 164.435 605.475 161.96 603.257 160.296C601.081 158.589 598.179 157.736 594.553 157.736C592.633 157.736 590.393 157.821 587.833 157.992V179.688C591.246 179.901 594.425 180.008 597.369 180.008Z" fill="white"/>
<path d="M588.952 115.51C574.245 115.51 560.953 117.284 550.943 120.175V119.522C540.933 122.753 534.558 127.242 534.558 132.205C534.558 132.987 534.73 133.758 535.033 134.513L534.008 136.357C534.008 136.357 533.185 137.433 534.642 139.704C535.926 141.707 542.363 149.546 545.759 153.651C547.218 155.755 548.208 157.051 548.294 156.926C548.43 156.727 547.388 152.777 544.491 148.269C543.139 145.847 541.493 142.64 540.524 140.271C543.229 141.988 546.837 143.547 550.943 144.888V144.867C560.953 147.758 574.245 149.532 588.952 149.532C605.784 149.532 620.885 147.208 631.023 143.546V121.497C620.885 117.834 605.784 115.51 588.952 115.51Z" fill="#A52B00"/>
<path d="M646.15 135.96L644.426 132.377C644.435 132.241 644.442 132.105 644.442 131.968C644.442 127.906 640.232 124.163 633.149 121.166V142.77C636.454 141.372 639.135 139.811 641.052 138.131C640.488 140.407 638.558 145.013 637.019 148.252C634.49 152.884 633.574 156.917 633.692 157.116C633.766 157.242 634.629 155.907 635.902 153.743C638.863 149.51 644.473 141.43 645.595 139.371C646.865 137.038 646.15 135.96 646.15 135.96Z" fill="#A52B00"/>
<path d="M656.159 135.94L644.828 127.565C644.722 127.193 644.615 126.82 644.505 126.451L648.227 121.041C648.607 120.491 648.684 119.775 648.437 119.148C648.19 118.524 647.65 118.076 647.01 117.966L640.717 116.895C640.473 116.395 640.217 115.904 639.961 115.416L642.605 109.343C642.877 108.724 642.82 108.005 642.459 107.444C642.1 106.879 641.49 106.55 640.84 106.576L634.452 106.808C634.122 106.376 633.786 105.948 633.443 105.528L634.911 99.0183C635.06 98.3576 634.872 97.6654 634.413 97.1851C633.957 96.7067 633.294 96.5087 632.663 96.6637L626.442 98.1983C626.039 97.841 625.629 97.4885 625.215 97.1431L625.439 90.46C625.463 89.7836 625.149 89.1407 624.609 88.7653C624.069 88.3875 623.385 88.3306 622.794 88.6113L616.99 91.3797C616.523 91.1106 616.053 90.8441 615.578 90.5862L614.553 84.0009C614.448 83.3338 614.021 82.767 613.421 82.5082C612.824 82.2478 612.139 82.3322 611.615 82.7283L606.44 86.6234C605.931 86.4537 605.419 86.2908 604.901 86.1352L602.67 79.8903C602.444 79.2536 601.921 78.7861 601.283 78.6547C600.648 78.5244 599.994 78.7452 599.553 79.2391L595.197 84.1278C594.671 84.0672 594.144 84.0118 593.615 83.9657L590.252 78.2809C589.911 77.7051 589.31 77.3548 588.661 77.3548C588.014 77.3548 587.411 77.7051 587.073 78.2809L583.709 83.9657C583.181 84.0118 582.651 84.0672 582.126 84.1278L577.77 79.2391C577.328 78.7452 576.672 78.5244 576.039 78.6547C575.401 78.7879 574.878 79.2536 574.652 79.8903L572.42 86.1352C571.903 86.2908 571.391 86.4547 570.88 86.6234L565.707 82.7283C565.181 82.3308 564.497 82.2467 563.898 82.5082C563.301 82.767 562.872 83.3338 562.768 84.0009L561.742 90.5862C561.267 90.8441 560.797 91.1092 560.329 91.3797L554.525 88.6113C553.936 88.3295 553.248 88.3875 552.711 88.7653C552.172 89.1407 551.857 89.7836 551.881 90.46L552.104 97.1431C551.691 97.4885 551.282 97.841 550.878 98.1983L544.657 96.6637C544.025 96.5099 543.363 96.7067 542.905 97.1851C542.445 97.6654 542.259 98.3576 542.407 99.0183L543.872 105.528C543.532 105.95 543.195 106.376 542.866 106.808L536.479 106.576C535.834 106.556 535.219 106.879 534.859 107.444C534.498 108.005 534.443 108.724 534.712 109.343L537.358 115.416C537.101 115.904 536.845 116.395 536.6 116.895L530.306 117.966C529.667 118.074 529.128 118.522 528.879 119.148C528.632 119.775 528.712 120.491 529.089 121.041L532.812 126.451C532.784 126.546 532.757 126.642 532.729 126.738L522.203 137.955C522.203 137.955 520.59 139.223 522.939 142.204C525.009 144.833 535.642 155.256 541.258 160.717C543.63 163.489 545.254 165.206 545.424 165.057C545.692 164.821 544.286 159.778 539.614 153.86C536.013 148.55 531.339 140.384 532.435 139.443C532.435 139.443 533.682 137.855 536.183 136.712C536.274 136.786 536.088 136.64 536.183 136.712C536.183 136.712 588.968 161.141 637.932 137.126C643.525 136.119 646.911 139.125 646.911 139.125C648.078 139.804 645.055 148.201 642.568 153.76C639.186 160.071 638.69 164.996 638.977 165.167C639.158 165.275 640.389 163.397 642.144 160.408C646.474 154.353 654.661 142.812 656.159 140.009C657.858 136.83 656.159 135.94 656.159 135.94Z" fill="#F74C00"/>
<path d="M607.135 151.413C607.337 151.24 607.443 151.138 607.443 151.138L590.163 149.528C604.267 130.861 615.556 145.92 616.758 147.583V151.413H607.135Z" fill="black"/>
<path d="M540.73 130.847C540.73 130.847 526.473 125.279 524.063 119.286C524.063 119.286 540.796 105.932 520.775 91.7477L520.232 109.826C520.232 109.826 514.3 104.085 514.562 94.0309C514.562 94.0309 496.111 102.938 517.703 118.696C517.703 118.696 518.431 127.155 537.848 137.367L540.73 130.847Z" fill="#F74C00"/>
<path d="M604.784 125.359C604.784 127.615 603.458 129.444 601.823 129.444C600.188 129.444 598.863 127.615 598.863 125.359C598.863 123.102 600.188 121.273 601.823 121.273C603.458 121.273 604.784 123.102 604.784 125.359Z" fill="white"/>
<path d="M579.678 125.507C579.678 127.834 578.31 129.721 576.624 129.721C574.938 129.721 573.571 127.834 573.571 125.507C573.571 123.179 574.938 121.293 576.624 121.293C578.31 121.293 579.678 123.179 579.678 125.507Z" fill="white"/>
<path d="M633.62 133.041C633.62 133.041 631.731 140.591 619.979 148.525L616.684 149.3C616.684 149.3 606.024 129.797 590.921 151.775C590.921 151.775 595.628 149.025 608.246 152.373C608.246 152.373 602.442 161.286 590.749 161.012C590.749 161.012 601.954 174.499 619.005 155.019C619.005 155.019 637.03 148.026 638.492 133.041H633.62Z" fill="#F74C00"/>
<mask id="mask0_1_4" style="mask-type:luminance" maskUnits="userSpaceOnUse" x="551" y="72" width="81" height="82">
<path d="M551.254 72.5755H631.576V153.159H551.254V72.5755Z" fill="white"/>
</mask>
<g mask="url(#mask0_1_4)">
<path d="M589.184 112.867C589.184 125.23 580.692 135.251 570.219 135.251C559.745 135.251 551.254 125.23 551.254 112.867C551.254 100.504 559.745 90.4829 570.219 90.4829C580.692 90.4829 589.184 100.504 589.184 112.867Z" fill="#E1E8ED"/>
<path d="M631.576 112.867C631.576 125.23 623.084 135.251 612.611 135.251C602.138 135.251 593.646 125.23 593.646 112.867C593.646 100.504 602.138 90.4829 612.611 90.4829C623.084 90.4829 631.576 100.504 631.576 112.867Z" fill="#E1E8ED"/>
<path d="M569.103 121.821C569.103 125.53 566.107 128.536 562.41 128.536C558.712 128.536 555.716 125.53 555.716 121.821C555.716 118.112 558.712 115.106 562.41 115.106C566.107 115.106 569.103 118.112 569.103 121.821Z" fill="#292F33"/>
<path d="M611.495 121.821C611.495 125.53 608.497 128.536 604.802 128.536C601.107 128.536 598.108 125.53 598.108 121.821C598.108 118.112 601.107 115.106 604.802 115.106C608.497 115.106 611.495 118.112 611.495 121.821Z" fill="#292F33"/>
</g>
<path d="M359.536 234.72C357.952 233.008 357.16 230.904 357.16 228.408C357.16 225.912 357.952 223.816 359.536 222.12C361.136 220.408 363.152 219.552 365.584 219.552C368.016 219.552 370.032 220.408 371.632 222.12C373.232 223.816 374.032 225.912 374.032 228.408C374.032 229.88 373.728 231.248 373.12 232.512C372.528 233.76 371.704 234.792 370.648 235.608C373.928 237.592 376.456 238.888 378.232 239.496C380.344 240.216 382.248 240.576 383.944 240.576C384.92 240.576 386.032 240.448 387.28 240.192C388.528 239.936 389.424 239.672 389.968 239.4L390.256 240.072C389.632 240.392 388.672 240.704 387.376 241.008C386.096 241.312 384.952 241.464 383.944 241.464C382.936 241.464 381.864 241.336 380.728 241.08C379.608 240.84 378.64 240.584 377.824 240.312C377.024 240.04 376.024 239.608 374.824 239.016C373.624 238.424 372.76 237.976 372.232 237.672C371.72 237.384 370.88 236.904 369.712 236.232C368.448 236.936 367.072 237.288 365.584 237.288C363.152 237.288 361.136 236.432 359.536 234.72ZM360.4 222.864C359.072 224.352 358.408 226.2 358.408 228.408C358.408 230.616 359.072 232.472 360.4 233.976C361.744 235.48 363.472 236.232 365.584 236.232C366.736 236.232 367.776 236 368.704 235.536C366.704 234.176 365.128 233.496 363.976 233.496C363.256 233.496 362.672 233.624 362.224 233.88L361.84 233.184C362.432 232.784 363.16 232.584 364.024 232.584C364.888 232.584 365.752 232.792 366.616 233.208C367.496 233.624 368.504 234.216 369.64 234.984C370.632 234.28 371.4 233.352 371.944 232.2C372.504 231.048 372.784 229.784 372.784 228.408C372.784 226.2 372.112 224.352 370.768 222.864C369.44 221.36 367.712 220.608 365.584 220.608C363.456 220.608 361.728 221.36 360.4 222.864ZM390.924 235.344C389.82 236.64 388.14 237.288 385.884 237.288C383.628 237.288 381.94 236.632 380.82 235.32C379.716 234.008 379.164 232.216 379.164 229.944V219.84H380.316V229.944C380.316 234.168 382.164 236.28 385.86 236.28C389.572 236.28 391.428 234.168 391.428 229.944V219.84H392.58V229.944C392.58 232.232 392.028 234.032 390.924 235.344ZM398.715 237V219.84H399.867V237H398.715ZM414.303 237.288C411.807 237.288 409.663 236.44 407.871 234.744C406.079 233.032 405.183 230.928 405.183 228.432C405.183 225.92 405.967 223.816 407.535 222.12C409.103 220.408 411.111 219.552 413.559 219.552C415.479 219.552 417.423 219.872 419.391 220.512L419.079 221.472C417.159 220.896 415.319 220.608 413.559 220.608C411.463 220.608 409.751 221.36 408.423 222.864C407.095 224.368 406.431 226.208 406.431 228.384C406.431 230.56 407.199 232.416 408.735 233.952C410.287 235.472 412.143 236.232 414.303 236.232C416.191 236.232 417.823 235.944 419.199 235.368L419.559 236.184C418.951 236.536 418.151 236.808 417.159 237C416.183 237.192 415.231 237.288 414.303 237.288ZM434.394 219.84L427.098 228.144C428.074 229.312 429.194 230.616 430.458 232.056C431.738 233.496 432.562 234.384 432.93 234.72C433.314 235.056 433.61 235.312 433.818 235.488C434.042 235.648 434.378 235.832 434.826 236.04C435.274 236.232 435.754 236.36 436.266 236.424L436.242 237.192C435.282 237.176 434.49 237.032 433.866 236.76C433.242 236.472 432.698 236.104 432.234 235.656C431.77 235.192 430.754 234.072 429.186 232.296C427.634 230.504 426.466 229.136 425.682 228.192L433.05 219.84H434.394ZM425.226 219.84V237H424.074V219.84H425.226ZM438.957 237V219.84H446.925V220.848H440.109V227.16H446.277V228.144H440.109V235.992H447.189V237H438.957ZM451.801 237V219.912C453.321 219.8 454.593 219.744 455.617 219.744C457.249 219.744 458.593 220.168 459.649 221.016C460.705 221.848 461.233 223.032 461.233 224.568C461.233 225.608 460.929 226.576 460.321 227.472C459.713 228.368 459.033 229.08 458.281 229.608C458.873 230.424 459.601 231.4 460.465 232.536C461.345 233.656 461.913 234.36 462.169 234.648C463.145 235.688 464.249 236.28 465.481 236.424L465.457 237.192C464.481 237.176 463.689 237.032 463.081 236.76C462.473 236.472 461.889 236.04 461.329 235.464C460.785 234.888 459.417 233.096 457.225 230.088C455.657 230.088 454.233 230.04 452.953 229.944V237H451.801ZM456.529 229.128C457.233 229.128 457.985 228.664 458.785 227.736C459.585 226.808 459.985 225.736 459.985 224.52C459.985 223.288 459.569 222.36 458.737 221.736C457.921 221.096 456.833 220.776 455.473 220.776C454.753 220.776 453.913 220.808 452.953 220.872V229.008C454.233 229.088 455.425 229.128 456.529 229.128ZM479.414 220.848H473.606V219.84H486.374V220.848H480.566V237H479.414V220.848ZM503.01 237V228.408H491.226V237H490.074V219.84H491.226V227.376H503.01V219.84H504.162V237H503.01ZM510.488 237V219.84H518.456V220.848H511.64V227.16H517.808V228.144H511.64V235.992H518.72V237H510.488ZM531.98 219.888C533.229 219.792 534.501 219.744 535.797 219.744C537.109 219.744 538.237 220.064 539.181 220.704C540.141 221.344 540.621 222.272 540.621 223.488C540.621 224.4 540.365 225.248 539.853 226.032C539.357 226.816 538.757 227.408 538.053 227.808C539.189 228.16 540.141 228.768 540.909 229.632C541.677 230.496 542.061 231.464 542.061 232.536C542.061 234.04 541.581 235.184 540.621 235.968C539.677 236.752 538.373 237.144 536.709 237.144C535.061 237.144 533.485 237.08 531.98 236.952V219.888ZM536.853 236.112C538.021 236.112 538.981 235.792 539.733 235.152C540.485 234.496 540.861 233.664 540.861 232.656C540.861 231.648 540.493 230.776 539.757 230.04C539.037 229.304 538.045 228.8 536.781 228.528C536.189 228.4 535.501 228.336 534.717 228.336C533.949 228.336 533.421 228.336 533.133 228.336V235.992C533.837 236.072 535.077 236.112 536.853 236.112ZM539.469 223.464C539.469 222.584 539.101 221.904 538.365 221.424C537.645 220.944 536.829 220.704 535.917 220.704C535.021 220.704 534.093 220.736 533.133 220.8V227.352C533.341 227.352 533.733 227.352 534.309 227.352C534.885 227.352 535.733 227.4 536.853 227.496C537.573 227.112 538.189 226.56 538.701 225.84C539.213 225.12 539.469 224.328 539.469 223.464ZM547.074 237V219.84H555.042V220.848H548.226V227.16H554.394V228.144H548.226V235.992H555.306V237H547.074ZM563.086 220.848H557.278V219.84H570.046V220.848H564.238V237H563.086V220.848ZM576.914 220.848H571.106V219.84H583.874V220.848H578.066V237H576.914V220.848ZM587.574 237V219.84H595.542V220.848H588.726V227.16H594.894V228.144H588.726V235.992H595.806V237H587.574ZM600.418 237V219.912C601.938 219.8 603.21 219.744 604.234 219.744C605.866 219.744 607.21 220.168 608.266 221.016C609.322 221.848 609.85 223.032 609.85 224.568C609.85 225.608 609.546 226.576 608.938 227.472C608.33 228.368 607.65 229.08 606.898 229.608C607.49 230.424 608.218 231.4 609.082 232.536C609.962 233.656 610.53 234.36 610.786 234.648C611.762 235.688 612.866 236.28 614.098 236.424L614.074 237.192C613.098 237.176 612.306 237.032 611.698 236.76C611.09 236.472 610.506 236.04 609.946 235.464C609.402 234.888 608.034 233.096 605.842 230.088C604.274 230.088 602.85 230.04 601.57 229.944V237H600.418ZM605.146 229.128C605.85 229.128 606.602 228.664 607.402 227.736C608.202 226.808 608.602 225.736 608.602 224.52C608.602 223.288 608.186 222.36 607.354 221.736C606.538 221.096 605.45 220.776 604.09 220.776C603.37 220.776 602.53 220.808 601.57 220.872V229.008C602.85 229.088 604.042 229.128 605.146 229.128Z" fill="#301E1E"/>
<path fill-rule="evenodd" clip-rule="evenodd" d="M368.441 -69.6938L339.402 -84.6514C311.489 -100.853 256.755 -127.743 239.935 -122.595C221.988 -116.203 248.644 -71.7223 257.453 -41.1252C270.731 -8.74694 272.851 15.7989 239.309 5.81861C204.641 -2.91731 137.656 -43.1537 109.677 -45.8384C82.8235 -49.7674 94.9764 -16.1448 88.1889 -1.92014C83.6201 16.5744 63.4554 18.6966 45.5092 25.0888C28.6888 30.2366 18.5571 41.4356 24.0213 69.007C30.6112 95.3341 56.1414 141.059 46.0096 152.258C34.7521 164.702 -12.1672 142.619 6.67425 182.293C23.2972 217.697 105.681 314.857 98.8935 329.082C94.3247 347.576 3.92904 286.161 -40.7718 268.348C-84.3468 249.291 -85.5713 270.811 -83.3856 281.84L-82.3257 294.112L-186 200.319L-180.371 194.097C-175.868 189.119 -164.611 176.676 -154.479 165.477C-143.222 153.034 -133.09 141.835 -121.832 129.391C-111.701 118.192 -100.443 105.749 -90.3114 94.55C-79.0539 82.1066 -68.9221 70.9076 -57.6647 58.4642C-47.5329 47.2652 -36.2754 34.8219 -26.1437 23.6228C-14.8862 11.1795 -4.75447 -0.0195522 5.37727 -11.2186C16.6348 -23.6619 26.7665 -34.861 38.024 -47.3043C48.1557 -58.5033 59.4132 -70.9467 69.5449 -82.1457C80.8024 -94.5891 90.9342 -105.788 102.192 -118.231C112.323 -129.43 123.581 -141.874 133.713 -153.073C144.97 -165.516 155.102 -176.715 166.359 -189.159C176.491 -200.358 187.749 -212.801 192.252 -217.778L197.88 -224L368.441 -69.6938Z" fill="#9C6799"/>
<path fill-rule="evenodd" clip-rule="evenodd" d="M-4.40613 203L24.7042 225.307C54.794 247.815 113.015 292.428 174.627 325.487C236.239 358.547 299.284 379.65 364.112 397.036C428.941 414.422 493.594 427.689 559.226 441.157C624.859 454.624 689.512 467.891 722.818 474.725L755.144 481.359L740.671 551.889L708.345 545.256C675.039 538.421 610.386 525.155 544.754 511.687C479.121 498.219 414.468 484.953 348.836 471.485C283.203 458.017 218.55 444.751 152.918 431.283C87.2854 417.815 22.6325 404.549 -10.6736 397.714L-43 391.081L-4.40613 203Z" fill="url(#paint1_linear_1_4)" fill-opacity="0.21"/>
<path fill-rule="evenodd" clip-rule="evenodd" d="M810.882 204.678L785.523 178.184C759.227 151.341 708.51 98.3526 652.676 56.2639C596.841 14.1752 537.762 -16.3169 476.353 -43.408C414.944 -70.4991 353.079 -93.4924 290.276 -116.834C227.474 -140.176 165.609 -163.169 133.739 -175.014L102.806 -186.511L127.89 -254L158.822 -242.503C190.692 -230.658 252.557 -207.665 315.36 -184.323C378.163 -160.982 440.028 -137.988 502.83 -114.647C565.633 -91.3051 627.498 -68.3118 690.301 -44.9702C753.103 -21.6285 814.969 1.36478 846.839 13.2098L877.771 24.7064L810.882 204.678Z" fill="url(#paint2_linear_1_4)" fill-opacity="0.21"/>
</g>
<defs>
<linearGradient id="paint0_linear_1_4" x1="693" y1="344" x2="92" y2="79" gradientUnits="userSpaceOnUse">
<stop stop-color="#9A71B6" stop-opacity="0.91"/>
<stop offset="1" stop-color="#FFABCF" stop-opacity="0.88"/>
</linearGradient>
<linearGradient id="paint1_linear_1_4" x1="-36.8248" y1="360.987" x2="231.779" y2="-4.22179" gradientUnits="userSpaceOnUse">
<stop stop-color="#181589"/>
<stop offset="1" stop-color="#0AD199"/>
</linearGradient>
<linearGradient id="paint2_linear_1_4" x1="867.069" y1="53.5029" x2="545.797" y2="373.362" gradientUnits="userSpaceOnUse">
<stop stop-color="#181589"/>
<stop offset="1" stop-color="#0AD199"/>
</linearGradient>
<clipPath id="clip0_1_4">
<rect width="800" height="400" rx="32" fill="white"/>
</clipPath>
</defs>
</svg>
